<?xml version="1.0" encoding="UTF-8" standalone="no"?>
<!-- Created with Inkscape (http://www.inkscape.org/) -->

<svg
   width="300mm"
   height="25mm"
   viewBox="0 0 300 25"
   version="1.1"
   id="svg1"
   inkscape:version="1.4.3 (fcd0343856, 2026-01-01)"
   sodipodi:docname="grass-2.svg"
   xmlns:inkscape="http://www.inkscape.org/namespaces/inkscape"
   xmlns:sodipodi="http://sodipodi.sourceforge.net/DTD/sodipodi-0.dtd"
   xmlns="http://www.w3.org/2000/svg"
   xmlns:svg="http://www.w3.org/2000/svg">
  <sodipodi:namedview
     id="namedview1"
     pagecolor="#505050"
     bordercolor="#ffffff"
     borderopacity="1"
     inkscape:showpageshadow="0"
     inkscape:pageopacity="0"
     inkscape:pagecheckerboard="1"
     inkscape:deskcolor="#d1d1d1"
     inkscape:document-units="mm"
     inkscape:zoom="0.84065175"
     inkscape:cx="403.25855"
     inkscape:cy="152.85759"
     inkscape:window-width="1920"
     inkscape:window-height="1009"
     inkscape:window-x="0"
     inkscape:window-y="34"
     inkscape:window-maximized="1"
     inkscape:current-layer="layer1" />
  <defs
     id="defs1" />
  <g
     inkscape:label="Layer 1"
     inkscape:groupmode="layer"
     id="layer1">
    <rect
       style="fill:#1e9719;fill-opacity:1;stroke-width:0.847557"
       id="rect2-3"
       width="24.591812"
       height="56.519878"
       x="2.4001157"
       y="0.54273307"
       transform="matrix(0.78456066,0.62005208,-0.59850584,0.80111844,0,0)" />
    <rect
       style="fill:#1e9719;fill-opacity:1;stroke-width:0.847557"
       id="rect2-3-3"
       width="24.591812"
       height="56.519878"
       x="15.436019"
       y="-10.346567"
       transform="matrix(0.78456066,0.62005208,-0.59850584,0.80111844,0,0)" />
    <rect
       style="fill:#1e9719;fill-opacity:1;stroke-width:0.847557"
       id="rect2-3-1-3"
       width="24.591812"
       height="56.519878"
       x="29.517351"
       y="-19.848137"
       transform="matrix(0.78456066,0.62005208,-0.59850584,0.80111844,0,0)" />
    <rect
       style="fill:#1e9719;fill-opacity:1;stroke-width:0.847557"
       id="rect2-3-1-3-1"
       width="24.591812"
       height="56.519878"
       x="42.718323"
       y="-30.867332"
       transform="matrix(0.78456066,0.62005208,-0.59850584,0.80111844,0,0)" />
    <rect
       style="fill:#1e9719;fill-opacity:1;stroke-width:0.847557"
       id="rect2-3-36"
       width="24.591812"
       height="56.519878"
       x="52.836517"
       y="-37.830811"
       transform="matrix(0.78456066,0.62005208,-0.59850584,0.80111844,0,0)" />
    <rect
       style="fill:#1e9719;fill-opacity:1;stroke-width:0.847557"
       id="rect2-3-3-0"
       width="24.591812"
       height="56.519878"
       x="65.872421"
       y="-48.720108"
       transform="matrix(0.78456066,0.62005208,-0.59850584,0.80111844,0,0)" />
    <rect
       style="fill:#1e9719;fill-opacity:1;stroke-width:0.847557"
       id="rect2-3-1-3-6"
       width="24.591812"
       height="56.519878"
       x="79.953751"
       y="-58.22168"
       transform="matrix(0.78456066,0.62005208,-0.59850584,0.80111844,0,0)" />
    <rect
       style="fill:#1e9719;fill-opacity:1;stroke-width:0.847557"
       id="rect2-3-1-3-1-2"
       width="24.591812"
       height="56.519878"
       x="93.154732"
       y="-69.240875"
       transform="matrix(0.78456066,0.62005208,-0.59850584,0.80111844,0,0)" />
    <rect
       style="fill:#1e9719;fill-opacity:1;stroke-width:0.847557"
       id="rect2-3-36-9"
       width="24.591812"
       height="56.519878"
       x="102.45025"
       y="-74.52095"
       transform="matrix(0.78456066,0.62005208,-0.59850584,0.80111844,0,0)" />
    <rect
       style="fill:#1e9719;fill-opacity:1;stroke-width:0.847557"
       id="rect2-3-3-0-2"
       width="24.591812"
       height="56.519878"
       x="115.48615"
       y="-85.410248"
       transform="matrix(0.78456066,0.62005208,-0.59850584,0.80111844,0,0)" />
    <rect
       style="fill:#1e9719;fill-opacity:1;stroke-width:0.847557"
       id="rect2-3-1-3-6-0"
       width="24.591812"
       height="56.519878"
       x="129.56746"
       y="-94.911819"
       transform="matrix(0.78456066,0.62005208,-0.59850584,0.80111844,0,0)" />
    <rect
       style="fill:#1e9719;fill-opacity:1;stroke-width:0.847557"
       id="rect2-3-1-3-1-2-2"
       width="24.591812"
       height="56.519878"
       x="142.76845"
       y="-105.93102"
       transform="matrix(0.78456066,0.62005208,-0.59850584,0.80111844,0,0)" />
    <rect
       style="fill:#1e9719;fill-opacity:1;stroke-width:0.847557"
       id="rect2-3-36-9-2"
       width="24.591812"
       height="56.519878"
       x="153.905"
       y="-111.69751"
       transform="matrix(0.78456066,0.62005208,-0.59850584,0.80111844,0,0)" />
    <rect
       style="fill:#1e9719;fill-opacity:1;stroke-width:0.847557"
       id="rect2-3-3-0-2-2"
       width="24.591812"
       height="56.519878"
       x="166.94089"
       y="-122.58681"
       transform="matrix(0.78456066,0.62005208,-0.59850584,0.80111844,0,0)" />
    <rect
       style="fill:#1e9719;fill-opacity:1;stroke-width:0.847557"
       id="rect2-3-1-3-6-0-8"
       width="24.591812"
       height="56.519878"
       x="181.02222"
       y="-132.08839"
       transform="matrix(0.78456066,0.62005208,-0.59850584,0.80111844,0,0)" />
    <rect
       style="fill:#1e9719;fill-opacity:1;stroke-width:0.847557"
       id="rect2-3-1-3-1-2-2-9"
       width="24.591812"
       height="56.519878"
       x="194.22321"
       y="-143.10759"
       transform="matrix(0.78456066,0.62005208,-0.59850584,0.80111844,0,0)" />
    <rect
       style="fill:#1e9719;fill-opacity:1;stroke-width:0.847557"
       id="rect2-3-36-9-2-2"
       width="24.591812"
       height="56.519878"
       x="203.1713"
       y="-150.65349"
       transform="matrix(0.78456066,0.62005208,-0.59850584,0.80111844,0,0)" />
    <rect
       style="fill:#1e9719;fill-opacity:1;stroke-width:0.847557"
       id="rect2-3-3-0-2-2-9"
       width="24.591812"
       height="56.519878"
       x="216.20718"
       y="-161.54279"
       transform="matrix(0.78456066,0.62005208,-0.59850584,0.80111844,0,0)" />
    <rect
       style="fill:#1e9719;fill-opacity:1;stroke-width:0.847557"
       id="rect2-3-1-3-6-0-8-3"
       width="24.591812"
       height="56.519878"
       x="230.28851"
       y="-171.04437"
       transform="matrix(0.78456066,0.62005208,-0.59850584,0.80111844,0,0)" />
    <rect
       style="fill:#1e9719;fill-opacity:1;stroke-width:0.847557"
       id="rect2-3-1-3-1-2-2-9-1"
       width="24.591812"
       height="56.519878"
       x="243.48952"
       y="-182.06357"
       transform="matrix(0.78456066,0.62005208,-0.59850584,0.80111844,0,0)" />
    <rect
       style="fill:#2ce226;fill-opacity:1;stroke-width:0.691395"
       id="rect1"
       width="303.48273"
       height="27.852831"
       x="-1.0212986"
       y="11.096236" />
  </g>
</svg>
