<?xml version="1.0" encoding="UTF-8" standalone="no"?>
<!-- Created with Inkscape (http://www.inkscape.org/) -->

<svg
   width="300mm"
   height="25mm"
   viewBox="0 0 300 25"
   version="1.1"
   id="svg1"
   inkscape:version="1.4.3 (fcd0343856, 2026-01-01)"
   sodipodi:docname="grass-1.svg"
   xmlns:inkscape="http://www.inkscape.org/namespaces/inkscape"
   xmlns:sodipodi="http://sodipodi.sourceforge.net/DTD/sodipodi-0.dtd"
   xmlns="http://www.w3.org/2000/svg"
   xmlns:svg="http://www.w3.org/2000/svg">
  <sodipodi:namedview
     id="namedview1"
     pagecolor="#505050"
     bordercolor="#ffffff"
     borderopacity="1"
     inkscape:showpageshadow="0"
     inkscape:pageopacity="0"
     inkscape:pagecheckerboard="1"
     inkscape:deskcolor="#d1d1d1"
     inkscape:document-units="mm"
     inkscape:zoom="1.1888611"
     inkscape:cx="460.94535"
     inkscape:cy="62.665016"
     inkscape:window-width="1920"
     inkscape:window-height="1009"
     inkscape:window-x="0"
     inkscape:window-y="34"
     inkscape:window-maximized="1"
     inkscape:current-layer="layer1" />
  <defs
     id="defs1" />
  <g
     inkscape:label="Layer 1"
     inkscape:groupmode="layer"
     id="layer1">
    <rect
       style="fill:#1e9719;fill-opacity:1;stroke-width:0.847557"
       id="rect2-3"
       width="24.591812"
       height="56.519878"
       x="4.4179869"
       y="-1.019065"
       transform="matrix(0.78456066,0.62005208,-0.59850584,0.80111844,0,0)" />
    <rect
       style="fill:#1e9719;fill-opacity:1;stroke-width:0.847557"
       id="rect2-3-3"
       width="24.591812"
       height="56.519878"
       x="17.45389"
       y="-11.908365"
       transform="matrix(0.78456066,0.62005208,-0.59850584,0.80111844,0,0)" />
    <rect
       style="fill:#1e9719;fill-opacity:1;stroke-width:0.847557"
       id="rect2-3-1-3"
       width="24.591812"
       height="56.519878"
       x="31.535223"
       y="-21.409935"
       transform="matrix(0.78456066,0.62005208,-0.59850584,0.80111844,0,0)" />
    <rect
       style="fill:#1e9719;fill-opacity:1;stroke-width:0.847557"
       id="rect2-3-1-3-1"
       width="24.591812"
       height="56.519878"
       x="44.736195"
       y="-32.429131"
       transform="matrix(0.78456066,0.62005208,-0.59850584,0.80111844,0,0)" />
    <rect
       style="fill:#1e9719;fill-opacity:1;stroke-width:0.847557"
       id="rect2-3-36"
       width="24.591812"
       height="56.519878"
       x="54.854389"
       y="-39.392609"
       transform="matrix(0.78456066,0.62005208,-0.59850584,0.80111844,0,0)" />
    <rect
       style="fill:#1e9719;fill-opacity:1;stroke-width:0.847557"
       id="rect2-3-3-0"
       width="24.591812"
       height="56.519878"
       x="67.890289"
       y="-50.281906"
       transform="matrix(0.78456066,0.62005208,-0.59850584,0.80111844,0,0)" />
    <rect
       style="fill:#1e9719;fill-opacity:1;stroke-width:0.847557"
       id="rect2-3-1-3-6"
       width="24.591812"
       height="56.519878"
       x="81.971619"
       y="-59.783478"
       transform="matrix(0.78456066,0.62005208,-0.59850584,0.80111844,0,0)" />
    <rect
       style="fill:#1e9719;fill-opacity:1;stroke-width:0.847557"
       id="rect2-3-1-3-1-2"
       width="24.591812"
       height="56.519878"
       x="95.1726"
       y="-70.802673"
       transform="matrix(0.78456066,0.62005208,-0.59850584,0.80111844,0,0)" />
    <rect
       style="fill:#1e9719;fill-opacity:1;stroke-width:0.847557"
       id="rect2-3-36-9"
       width="24.591812"
       height="56.519878"
       x="104.46812"
       y="-76.082748"
       transform="matrix(0.78456066,0.62005208,-0.59850584,0.80111844,0,0)" />
    <rect
       style="fill:#1e9719;fill-opacity:1;stroke-width:0.847557"
       id="rect2-3-3-0-2"
       width="24.591812"
       height="56.519878"
       x="117.50401"
       y="-86.972046"
       transform="matrix(0.78456066,0.62005208,-0.59850584,0.80111844,0,0)" />
    <rect
       style="fill:#1e9719;fill-opacity:1;stroke-width:0.847557"
       id="rect2-3-1-3-6-0"
       width="24.591812"
       height="56.519878"
       x="131.58533"
       y="-96.473618"
       transform="matrix(0.78456066,0.62005208,-0.59850584,0.80111844,0,0)" />
    <rect
       style="fill:#1e9719;fill-opacity:1;stroke-width:0.847557"
       id="rect2-3-1-3-1-2-2"
       width="24.591812"
       height="56.519878"
       x="144.78632"
       y="-107.49282"
       transform="matrix(0.78456066,0.62005208,-0.59850584,0.80111844,0,0)" />
    <rect
       style="fill:#1e9719;fill-opacity:1;stroke-width:0.847557"
       id="rect2-3-36-9-2"
       width="24.591812"
       height="56.519878"
       x="155.92287"
       y="-113.25931"
       transform="matrix(0.78456066,0.62005208,-0.59850584,0.80111844,0,0)" />
    <rect
       style="fill:#1e9719;fill-opacity:1;stroke-width:0.847557"
       id="rect2-3-3-0-2-2"
       width="24.591812"
       height="56.519878"
       x="168.95876"
       y="-124.14861"
       transform="matrix(0.78456066,0.62005208,-0.59850584,0.80111844,0,0)" />
    <rect
       style="fill:#1e9719;fill-opacity:1;stroke-width:0.847557"
       id="rect2-3-1-3-6-0-8"
       width="24.591812"
       height="56.519878"
       x="183.04008"
       y="-133.65019"
       transform="matrix(0.78456066,0.62005208,-0.59850584,0.80111844,0,0)" />
    <rect
       style="fill:#1e9719;fill-opacity:1;stroke-width:0.847557"
       id="rect2-3-1-3-1-2-2-9"
       width="24.591812"
       height="56.519878"
       x="196.24107"
       y="-144.66939"
       transform="matrix(0.78456066,0.62005208,-0.59850584,0.80111844,0,0)" />
    <rect
       style="fill:#1e9719;fill-opacity:1;stroke-width:0.847557"
       id="rect2-3-36-9-2-2"
       width="24.591812"
       height="56.519878"
       x="205.18916"
       y="-152.21529"
       transform="matrix(0.78456066,0.62005208,-0.59850584,0.80111844,0,0)" />
    <rect
       style="fill:#1e9719;fill-opacity:1;stroke-width:0.847557"
       id="rect2-3-3-0-2-2-9"
       width="24.591812"
       height="56.519878"
       x="218.22505"
       y="-163.10458"
       transform="matrix(0.78456066,0.62005208,-0.59850584,0.80111844,0,0)" />
    <rect
       style="fill:#1e9719;fill-opacity:1;stroke-width:0.847557"
       id="rect2-3-1-3-6-0-8-3"
       width="24.591812"
       height="56.519878"
       x="232.30638"
       y="-172.60617"
       transform="matrix(0.78456066,0.62005208,-0.59850584,0.80111844,0,0)" />
    <rect
       style="fill:#1e9719;fill-opacity:1;stroke-width:0.847557"
       id="rect2-3-1-3-1-2-2-9-1"
       width="24.591812"
       height="56.519878"
       x="245.50739"
       y="-183.62537"
       transform="matrix(0.78456066,0.62005208,-0.59850584,0.80111844,0,0)" />
    <rect
       style="fill:#2ce226;fill-opacity:1;stroke-width:0.691395"
       id="rect1"
       width="303.48273"
       height="27.852831"
       x="-1.0212986"
       y="11.096236" />
  </g>
</svg>
